# xmcd
#
# Track frame offsets:
#	150
#	15122
#	30325
#	44393
#	56628
#	71814
#	87568
#	104645
#
# Disc length: 1615 seconds
#
# Revision: 0
# Processed by: cddbd v1.5PL3 Copyright (c) Steve Scherf et al.
# Submitted via: dBpowerAMP V4.0
#
DISCID=63064d08
DTITLE=John Marriott - John Marriott
DYEAR=2001
DGENRE=Country
TTITLE0=Take Me Back Down a Dirt Road
TTITLE1=Love Don't Live There Anymore
TTITLE2=I Can't Be the Man You Need
TTITLE3=She Prays for Rain
TTITLE4=Most of All
TTITLE5=Borrowed Angel
TTITLE6=Dad and I
TTITLE7=Modern Day Cowboy
EXTD=
EXTT0=
EXTT1=
EXTT2=
EXTT3=
EXTT4=
EXTT5=
EXTT6=
EXTT7=
PLAYORDER=
